HIERARCHY
ROOT Hips
{
	OFFSET	0.00	0.00	0.00
	CHANNELS 6 Xposition Yposition Zposition Zrotation Xrotation Yrotation
	JOINT LeftUpLeg
	{
		OFFSET	 0.126116	-0.065224	 0.014019
		CHANNELS 3 Zrotation Xrotation Yrotation
		JOINT LeftLeg
		{
			OFFSET	 0.000000	 0.569914	 0.000000
			CHANNELS 3 Zrotation Xrotation Yrotation
			JOINT LeftFoot
			{
				OFFSET	 0.000000	 0.544423	 0.000000
				CHANNELS 3 Zrotation Xrotation Yrotation
				JOINT LeftToeBase
				{
					OFFSET	 0.000000	 0.207117	 0.000000
					CHANNELS 3 Zrotation Xrotation Yrotation
					End Site
					{
						OFFSET	 0.000000	 0.207117	 0.000000
					}
				}
			}
		}
	}
	JOINT RightUpLeg
	{
		OFFSET	-0.124023	-0.065224	 0.008373
		CHANNELS 3 Zrotation Xrotation Yrotation
		JOINT RightLeg
		{
			OFFSET	 0.000000	 0.570047	 0.000000
			CHANNELS 3 Zrotation Xrotation Yrotation
			JOINT RightFoot
			{
				OFFSET	 0.000000	 0.544354	 0.000000
				CHANNELS 3 Zrotation Xrotation Yrotation
				JOINT RightToeBase
				{
					OFFSET	 0.000000	 0.207540	 0.000000
					CHANNELS 3 Zrotation Xrotation Yrotation
					End Site
					{
						OFFSET	 0.000000	 0.207540	 0.000000
					}
				}
			}
		}
	}
	JOINT Spine
	{
		OFFSET	 0.000184	 0.117403	 0.007763
		CHANNELS 3 Zrotation Xrotation Yrotation
		JOINT Spine1
		{
			OFFSET	 0.000000	 0.137269	 0.000000
			CHANNELS 3 Zrotation Xrotation Yrotation
			JOINT Spine2
			{
				OFFSET	 0.000000	 0.156879	 0.000000
				CHANNELS 3 Zrotation Xrotation Yrotation
				JOINT LeftShoulder
				{
					OFFSET	 0.080501	 0.160143	 0.002496
					CHANNELS 3 Zrotation Xrotation Yrotation
					JOINT LeftArm
					{
						OFFSET	 0.000000	 0.164363	 0.000000
						CHANNELS 3 Zrotation Xrotation Yrotation
						JOINT LeftForeArm
						{
							OFFSET	 0.000000	 0.364576	 0.000000
							CHANNELS 3 Zrotation Xrotation Yrotation
							JOINT LeftHand
							{
								OFFSET	 0.000000	 0.360812	 0.000000
								CHANNELS 3 Zrotation Xrotation Yrotation
								JOINT LeftHandIndex1
								{
									OFFSET	 0.000000	 0.086006	 0.000000
									CHANNELS 3 Zrotation Xrotation Yrotation
									JOINT LeftHandIndex2
									{
										OFFSET	 0.000000	 0.047237	 0.000000
										CHANNELS 3 Zrotation Xrotation Yrotation
										JOINT LeftHandIndex3
										{
											OFFSET	-0.004284	 0.038165	 0.000551
											CHANNELS 3 Zrotation Xrotation Yrotation
											End Site
											{
												OFFSET	-0.004284	 0.038165	 0.000551
											}
										}
									}
								}
							}
						}
					}
				}
				JOINT Neck
				{
					OFFSET	 0.000000	 0.176489	 0.000000
					CHANNELS 3 Zrotation Xrotation Yrotation
					JOINT Head
					{
						OFFSET	 0.000000	 0.077941	 0.001747
						CHANNELS 3 Zrotation Xrotation Yrotation
						End Site
						{
							OFFSET	 0.000000	 0.077941	 0.001747
						}
					}
				}
				JOINT RightShoulder
				{
					OFFSET	-0.080363	 0.159706	-0.000306
					CHANNELS 3 Zrotation Xrotation Yrotation
					JOINT RightArm
					{
						OFFSET	 0.000000	 0.164196	 0.000000
						CHANNELS 3 Zrotation Xrotation Yrotation
						JOINT RightForeArm
						{
							OFFSET	 0.000000	 0.365611	 0.000000
							CHANNELS 3 Zrotation Xrotation Yrotation
							JOINT RightHand
							{
								OFFSET	 0.000000	 0.360648	 0.000000
								CHANNELS 3 Zrotation Xrotation Yrotation
								JOINT RightHandIndex1
								{
									OFFSET	 0.000000	 0.069977	 0.000000
									CHANNELS 3 Zrotation Xrotation Yrotation
									JOINT RightHandIndex2
									{
										OFFSET	 0.000000	 0.052305	 0.000000
										CHANNELS 3 Zrotation Xrotation Yrotation
										JOINT RightHandIndex3
										{
											OFFSET	 0.009002	 0.042196	 0.000782
											CHANNELS 3 Zrotation Xrotation Yrotation
											End Site
											{
												OFFSET	 0.009002	 0.042196	 0.000782
											}
										}
									}
								}
							}
						}
					}
				}
			}
		}
	}
}
MOTION
Frames:    7
Frame Time: 0.03333334
-0.000815	 1.269479	-0.008587	-0.083295	 3.207170	 178.817000	-178.233400	 3.124779	-15.672520	 3.045206	-15.060740	 2.868103	-5.228610	 69.410720	 6.714997	 1.331492	 28.938720	-2.729976	 177.695800	 4.252809	 19.209600	-5.119367	-16.403350	-6.460748	 2.602602	 70.435400	-1.779375	-1.305359	 28.580640	 2.604955	-1.232336	 3.803730	 5.906577	-1.494095	 2.217246	 2.166536	-1.379667	 0.208102	-10.822580	-113.447000	 5.126999	 93.000250	 41.507890	 43.070660	 11.763230	 4.746212	-0.244981	-0.034405	-5.173778	 17.038340	 3.167807	-6.580301	 5.266122	 0.000000	 0.000000	 0.000000	 0.000000	 0.000000	 0.000000	 0.000000	 3.829289	-0.642636	-0.249927	 3.212443	 0.940735	-1.087249	 114.205800	-4.429422	-88.481740	-87.854710	-15.111550	 39.222530	-77.853880	-2.202346	-1.759929	 14.286280	-13.789290	-53.464690	-0.359781	 10.582440	 0.744568	 11.977790	 9.317315	-2.096066	-8.359142	 3.150339	 0.104224
-0.000781	 1.269478	-0.008528	-0.060370	 3.159691	 178.806800	-178.119600	 3.193417	-16.324850	 3.055762	-15.110490	 2.866681	-5.240124	 69.404160	 6.726128	 1.331492	 28.938720	-2.729976	 177.626500	 4.301572	 19.848590	-5.118944	-16.402060	-6.467456	 2.581125	 70.423280	-1.758343	-1.305362	 28.580660	 2.604239	-1.234470	 3.792804	 6.107807	-1.472157	 2.118373	 2.170372	-1.388420	 0.252909	-10.820720	-113.447100	 5.125491	 92.999930	 41.309840	 43.053460	 11.916270	 4.778100	-0.244189	 0.180112	-5.015484	 17.052980	 3.145340	-6.580301	 5.266122	 0.000000	 0.000000	 0.000000	 0.000000	 0.000000	 0.000000	 0.000000	 3.831762	-0.648307	-0.250698	 3.221749	 0.943974	-1.092556	 114.205400	-4.426427	-88.483910	-87.336080	-14.910110	 39.183670	-78.346900	-2.204574	-1.993181	 14.187090	-13.284190	-53.359390	-0.359781	 10.582430	 0.744568	 11.977790	 9.317300	-2.096063	-8.359142	 3.150331	 0.104225
-0.000722	 1.269476	-0.008486	-0.030359	 3.108896	 178.785600	-177.986900	 3.265378	-17.049950	 3.068412	-15.170040	 2.861293	-5.267236	 69.400100	 6.751681	 1.331492	 28.938720	-2.729976	 177.557300	 4.349762	 20.541840	-5.116755	-16.395440	-6.481129	 2.541672	 70.411530	-1.715921	-1.305367	 28.580690	 2.602739	-1.258746	 3.656502	 6.530989	-1.402600	 2.225738	 2.179874	-1.423322	 0.200803	-10.817550	-113.447100	 5.122336	 92.999240	 41.106340	 43.009570	 12.087100	 4.859583	-0.243587	 0.628945	-4.851694	 17.113970	 3.108143	-6.580301	 5.266122	 0.000000	 0.000000	 0.000000	 0.000000	 0.000000	 0.000000	 0.000000	 3.836935	-0.660176	-0.252309	 3.241223	 0.950751	-1.103687	 114.204500	-4.420117	-88.488470	-86.616620	-14.816040	 38.998210	-78.835800	-2.204681	-2.460549	 13.900580	-12.249490	-53.125450	-0.359780	 10.582400	 0.744568	 11.977790	 9.317268	-2.096057	-8.359142	 3.150314	 0.104226
-0.000632	 1.269474	-0.008472	 0.005659	 3.059775	 178.754900	-177.844900	 3.333499	-17.782320	 3.082394	-15.235960	 2.851853	-5.303309	 69.400120	 6.783277	 1.331492	 28.938720	-2.729976	 177.497300	 4.390786	 21.223370	-5.112320	-16.382000	-6.501367	 2.468446	 70.401550	-1.634135	-1.305376	 28.580740	 2.600492	-1.276119	 3.587212	 7.164586	-1.378176	 2.196105	 2.195487	-1.435069	 0.209885	-10.812510	-113.447200	 5.117561	 92.998190	 40.926120	 42.925260	 12.255240	 4.987241	-0.242908	 1.301543	-4.699562	 17.238350	 3.059285	-6.580301	 5.266122	 0.000000	 0.000000	 0.000000	 0.000000	 0.000000	 0.000000	 0.000000	 3.844688	-0.677964	-0.254721	 3.270413	 0.960902	-1.120377	 114.203100	-4.410669	-88.495310	-85.687730	-14.831720	 38.692780	-79.237650	-2.202149	-3.148079	 13.308170	-10.707990	-52.759880	-0.359778	 10.582350	 0.744568	 11.977790	 9.317222	-2.096047	-8.359141	 3.150290	 0.104229
-0.000498	 1.269472	-0.008499	 0.049402	 3.011949	 178.714400	-177.689400	 3.397740	-18.531560	 3.098239	-15.310530	 2.838489	-5.358688	 69.405540	 6.830938	 1.331492	 28.938720	-2.729976	 177.446100	 4.423762	 21.911500	-5.105364	-16.361000	-6.528343	 2.393752	 70.393750	-1.549301	-1.305388	 28.580810	 2.597468	-1.303063	 3.512115	 8.018916	-1.352128	 2.155551	 2.218642	-1.447680	 0.222476	-10.805740	-113.447300	 5.111151	 92.996800	 40.778720	 42.779270	 12.420090	 5.162610	-0.242152	 2.206198	-4.560561	 17.451000	 2.995813	-6.580301	 5.266122	 0.000000	 0.000000	 0.000000	 0.000000	 0.000000	 0.000000	 0.000000	 3.855121	-0.701905	-0.257965	 3.309714	 0.974570	-1.142897	 114.201300	-4.397939	-88.504490	-84.474040	-14.930790	 38.297600	-79.496660	-2.196579	-4.062011	 12.223970	-8.645541	-52.242550	-0.359776	 10.582290	 0.744568	 11.977790	 9.317159	-2.096034	-8.359139	 3.150256	 0.104232
-0.000311	 1.269469	-0.008578	 0.100852	 2.966386	 178.664900	-177.522600	 3.456325	-19.276290	 3.115888	-15.393600	 2.821676	-5.432176	 69.417800	 6.892175	 1.331492	 28.938720	-2.729976	 177.407900	 4.446114	 22.581180	-5.095186	-16.330200	-6.561102	 2.304245	 70.387870	-1.446868	-1.305403	 28.580890	 2.593762	-1.336454	 3.432431	 9.066909	-1.327067	 2.101927	 2.249800	-1.459909	 0.239551	-10.797420	-113.447400	 5.103302	 92.995060	 40.679090	 42.554380	 12.573760	 5.379856	-0.241315	 3.313461	-4.441659	 17.770500	 2.917485	-6.580301	 5.266122	 0.000000	 0.000000	 0.000000	 0.000000	 0.000000	 0.000000	 0.000000	 3.867903	-0.731242	-0.261933	 3.357886	 0.991284	-1.170479	 114.199000	-4.382366	-88.515790	-82.957560	-15.087970	 37.847670	-79.516800	-2.187607	-5.169031	 10.469570	-6.155394	-51.564320	-0.359774	 10.582210	 0.744568	 11.977790	 9.317080	-2.096019	-8.359138	 3.150215	 0.104236
-0.000048	 1.269467	-0.008729	 0.163712	 2.921241	 178.604000	-177.334600	 3.510583	-20.049490	 3.136482	-15.490300	 2.800936	-5.529076	 69.439060	 6.970157	 1.331492	 28.938720	-2.729976	 177.383200	 4.456929	 23.262140	-5.081042	-16.287400	-6.601161	 2.195470	 70.384730	-1.321620	-1.305420	 28.580990	 2.589204	-1.375475	 3.346089	 10.355730	-1.304430	 2.024291	 2.291464	-1.470915	 0.265871	-10.787160	-113.447600	 5.093645	 92.992970	 40.636880	 42.218180	 12.717580	 5.645922	-0.240316	 4.672737	-4.340478	 18.238040	 2.819257	-6.580301	 5.266122	 0.000000	 0.000000	 0.000000	 0.000000	 0.000000	 0.000000	 0.000000	 3.883624	-0.767331	-0.266805	 3.417168	 1.011799	-1.204422	 114.196200	-4.363217	-88.529620	-81.042510	-15.309920	 37.318730	-79.156580	-2.173809	-6.513094	 7.709442	-3.190271	-50.654880	-0.359771	 10.582110	 0.744568	 11.977790	 9.316985	-2.095999	-8.359137	 3.150164	 0.104240
